<?xml version="1.0" standalone="no"?><!DOCTYPE svg PUBLIC "-//W3C//DTD SVG 1.1//EN" "http://www.w3.org/Graphics/SVG/1.1/DTD/svg11.dtd"><svg t="1686713492842" class="icon" viewBox="0 0 1024 1024" version="1.1" xmlns="http://www.w3.org/2000/svg" p-id="2658" xmlns:xlink="http://www.w3.org/1999/xlink" width="16" height="16"><path d="M512.828055 0c282.766597 0 511.998618 229.232021 511.998618 511.998618s-229.232021 511.998618-511.998618 511.998617-511.998618-229.232021-511.998617-511.998617 229.232021-511.998618 511.998617-511.998618z" fill="#93D3E8" p-id="2659"></path><path d="M942.906894 767.997926h-20.479945v51.210102a517.804682 517.804682 0 0 0 20.479945-29.5628V767.997926z m-102.399723-102.399723h-20.479945v256.009549a514.72245 514.72245 0 0 0 20.479945-16.261076V665.598203z m51.199861 190.780925V716.798065h-20.479944v160.706126a504.339118 504.339118 0 0 0 20.479944-21.125063zM789.307309 604.158369h-20.479945v351.169612a512.879255 512.879255 0 0 0 20.479945-12.503007V604.158369z m-51.199862 367.655967V511.998618h-20.479945v469.277453a501.553846 501.553846 0 0 0 20.479945-9.461735z m-634.878286-152.606308V767.997926h-20.479944v21.647302a512.623256 512.623256 0 0 0 20.479944 29.5628z m184.319503 152.606308c6.737902 3.307511 13.578203 6.440943 20.479944 9.461735V511.998618h-20.479944v459.815718z m-102.399724-66.46766a514.72245 514.72245 0 0 0 20.479945 16.261076V665.598203h-20.479945v239.748473z m51.199862 37.478298c6.717422 4.321268 13.547483 8.488937 20.479945 12.503007V604.158369h-20.479945v338.666605z m-81.919779-65.320783V716.798065h-20.479945v139.581063a517.630602 517.630602 0 0 0 20.479945 21.125063z" fill="#F2F1EF" p-id="2660"></path><path d="M961.799643 758.188033C802.209674 679.852244 686.907585 463.799068 686.907585 286.719226h-30.719917c0 188.487171 121.282233 413.019045 290.036977 497.744576a500.478649 500.478649 0 0 0 15.574998-26.275769z m-897.943175 0c4.915187 8.939496 10.147813 17.674192 15.574998 26.275769C248.18621 699.738271 369.468442 475.206397 369.468442 286.719226h-30.719917c0 177.090082-115.302089 393.143259-274.892057 471.468807z" fill="#CB4E44" p-id="2661"></path><path d="M420.668304 337.919088v61.439834h184.319503v-61.439834h-184.319503z m0 245.759336h184.319503v-61.439834h-184.319503v61.439834z m0 184.319502h184.319503v-61.439834h-184.319503v61.439834z" fill="#E87970" p-id="2662"></path><path d="M420.668304 399.358922h20.479945v-61.439834h-20.479945v61.439834z m0 184.319502h20.479945v-61.439834h-20.479945v61.439834z m0 184.319502h20.479945v-61.439834h-20.479945v61.439834z m163.839558-430.078838v61.439834h20.479945v-61.439834h-20.479945z m0 245.759336h20.479945v-61.439834h-20.479945v61.439834z m0 184.319502h20.479945v-61.439834h-20.479945v61.439834z" fill="#D06D65" p-id="2663"></path><path d="M955.307501 254.524753c-8.181738-2.437113-17.203154-7.720939-17.203154-13.885403 0-2.611193 1.730555-5.038066 4.229109-7.18846A514.86581 514.86581 0 0 0 820.037466 102.399724h-40.970129a20.479945 20.479945 0 0 0 0 40.959889h61.439834a15.359959 15.359959 0 0 1 0 30.719917h-15.359959a25.599931 25.599931 0 1 0 0 51.199862h46.079876a15.359959 15.359959 0 0 1 0 30.719917h-112.639696a30.730157 30.730157 0 0 0 0 61.439834h227.870105a509.592224 509.592224 0 0 0-31.149996-62.91439z" fill="#B4E0EF" p-id="2664"></path><path d="M164.668995 235.519364H82.001699a507.728549 507.728549 0 0 0-27.494326 48.28147c1.454076 2.344954 2.324474 5.079026 2.324474 8.038378 0 7.731179-5.734385 14.039002-13.168605 15.114199A509.602464 509.602464 0 0 0 27.770805 348.15906h85.698329a20.479945 20.479945 0 0 0 0-40.949649 15.370199 15.370199 0 0 1 0-30.730157h51.199861a20.479945 20.479945 0 1 0 0-40.95989z" fill="#A9DCED" p-id="2665"></path><path d="M666.427641 268.123436V215.039419a20.479945 20.479945 0 0 0-40.95989 0v53.084017a30.648237 30.648237 0 0 0-20.479944 28.835762v718.61054a508.639907 508.639907 0 0 0 81.919778-21.974981V296.959198a30.637997 30.637997 0 0 0-20.479944-28.835762z m-266.239282 0V215.039419a20.479945 20.479945 0 0 0-40.959889 0v53.084017a30.648237 30.648237 0 0 0-20.479945 28.835762v696.635559a508.926626 508.926626 0 0 0 81.919779 21.974981V296.959198a30.637997 30.637997 0 0 0-20.479945-28.835762z" fill="#E2574C" p-id="2666"></path><path d="M625.467751 1011.412309a519.258758 519.258758 0 0 0 20.479945-5.007346V317.439143h-20.479945v693.973166z m0-765.652973h40.95989v20.479945h-40.95989z m30.719917 757.747715a495.184583 495.184583 0 0 0 20.479945-6.451183V317.439143h-20.479945v686.067908zM359.22847 245.759336h40.959889v20.479945h-40.959889z m20.479945 760.645627c6.768622 1.822715 13.608923 3.461111 20.479944 5.007346V317.439143h-20.479944v688.96582z m-30.719917-9.349095c6.768622 2.293754 13.588443 4.444148 20.479944 6.451183V317.439143h-20.479944v679.616725z" fill="#CB4E44" p-id="2667"></path><path d="M604.875167 891.000474L420.668304 890.877595l-51.88594 112.424656a511.763098 511.763098 0 0 0 288.070902 0.01024L604.875167 891.000474z" fill="#5F707A" p-id="2668"></path><path d="M574.15525 891.000474L451.388221 890.877595l-55.213931 119.613117A513.432214 513.432214 0 0 0 512.828055 1023.997235c40.140692 0 79.144746-4.771827 116.633285-13.496283l-55.30609-119.500478z" fill="#324D5B" p-id="2669"></path><path d="M512.828055 921.597512a10.239972 10.239972 0 0 1 10.239973 10.239972v51.199862a10.239972 10.239972 0 1 1-20.479945 0v-51.199862a10.239972 10.239972 0 0 1 10.239972-10.239972z" fill="#70838D" p-id="2670"></path></svg>